# xmcd CD database file
#
# Track frame offsets:
#	225
#	37995
#	48518
#	68208
#	86543
#	126143
#	162683
#	184683
#	194608
#	205380
#	228530
#	239725
#
# Disc length: 3259 seconds
#
# Revision: 0
# Processed by: cddbd v1.5.1PL0 Copyright (c) Steve Scherf et al.
# Submitted via: CDex 1.51
#
DISCID=b30cb80c
DTITLE=Noby Lehmann - Rhythm-Talk
DYEAR=1996
DGENRE=Jazz
TTITLE0=Wilderness
TTITLE1=Clearing
TTITLE2=Funky heaven for René
TTITLE3=Rhythm talk
TTITLE4=Forest
TTITLE5=Vivid
TTITLE6=Dance of Maya
TTITLE7=Spliff and Cleo in Tibet
TTITLE8=Davis
TTITLE9=Arabisch
TTITLE10=Tambour de lingua
TTITLE11=Relaxation
EXTD=YEAR: 1996
EXTT0=
EXTT1=
EXTT2=
EXTT3=
EXTT4=
EXTT5=
EXTT6=
EXTT7=
EXTT8=
EXTT9=
EXTT10=
EXTT11=
PLAYORDER=
